<svg width="76" height="76" viewBox="0 0 76 76" fill="none" xmlns="http://www.w3.org/2000/svg">
<circle cx="38" cy="38" r="38" fill="#FFD03A"/>
<g clip-path="url(#clip0_56_117)">
<g clip-path="url(#clip1_56_117)">
<path d="M27.2153 18C24.6944 18 22.6445 20.0499 22.6445 22.5708C22.6445 25.0917 24.6944 27.2179 27.2153 27.2179C29.7362 27.2179 31.7861 25.0917 31.7861 22.5708C31.7861 20.0499 29.7362 18 27.2153 18ZM52.3549 22.5708C52.3549 20.0499 50.305 18 47.7841 18C45.2632 18 43.2132 20.0499 43.2132 22.5708C43.2132 25.0917 45.2632 27.2179 47.7841 27.2179C50.305 27.2179 52.3549 25.0917 52.3549 22.5708ZM31.3439 52.6683C34.0038 54.9002 34.6585 55.5289 35.3704 56.1341C36.0489 56.7111 36.8959 57.0001 37.7429 57.0001C38.5978 57.0001 39.4525 56.7055 40.1311 56.1185C41.3706 55.0454 42.7139 53.8073 43.922 52.7481C43.2735 52.5303 42.6627 52.1825 42.1531 51.6724C40.7963 50.3172 40.4194 48.2642 41.2771 46.4674C38.9471 45.2339 36.0565 45.2371 33.7253 46.4726C34.5788 48.2673 34.2026 50.3178 32.8452 51.6735C32.4164 52.1023 31.9059 52.4405 31.3439 52.6683Z" fill="white"/>
<path d="M37.4993 40.9302C38.7615 40.9302 39.7847 39.907 39.7847 38.6448C39.7847 37.3826 38.7615 36.3594 37.4993 36.3594C36.2371 36.3594 35.2139 37.3826 35.2139 38.6448C35.2139 39.907 36.2371 40.9302 37.4993 40.9302Z" fill="white"/>
<path d="M37.4997 32.6462C35.9352 29.8273 33.2347 27.3868 29.4047 27.3868C24.1375 27.3868 20.166 31.6563 20.166 37.3174C20.166 42.3181 23.5671 45.9848 28.9423 50.6234C29.7335 50.8613 30.6202 50.6654 31.2305 50.0568C32.1669 49.1227 32.091 47.602 31.1379 46.7358C26.2322 42.2787 24.7369 40.2044 24.7369 37.8811H27.0224C27.0224 39.3207 28.4266 41.1411 32.2795 44.677C35.4577 42.812 39.5431 42.816 42.7201 44.6771C46.5729 41.1412 47.9773 39.3207 47.9773 37.8811H50.2627C50.2627 40.2044 48.7674 42.2787 43.8618 46.7358C42.9139 47.5973 42.8283 49.1182 43.7681 50.0556C44.5386 50.8241 45.7381 50.9107 46.641 50.3236C52.3565 45.1164 54.8336 41.886 54.8336 37.3173C54.8336 31.6562 50.862 27.3867 45.5949 27.3867C41.7636 27.3868 39.0642 29.8273 37.4997 32.6462ZM42.0705 38.6454C42.0705 41.1663 40.0206 43.2162 37.4997 43.2162C34.9788 43.2162 32.9289 41.1663 32.9289 38.6454C32.9289 36.1245 34.9788 34.0745 37.4997 34.0745C40.0206 34.0745 42.0705 36.1245 42.0705 38.6454Z" fill="white"/>
</g>
</g>
<defs>
<clipPath id="clip0_56_117">
<rect width="39" height="39" fill="white" transform="translate(18 18)"/>
</clipPath>
<clipPath id="clip1_56_117">
<rect width="39" height="39" fill="white" transform="translate(18 18)"/>
</clipPath>
</defs>
</svg>
