<svg width="42" height="42" viewBox="0 0 42 42" fill="none" xmlns="http://www.w3.org/2000/svg">
<path fill-rule="evenodd" clip-rule="evenodd" d="M21 5.6875C21.3481 5.6875 21.6819 5.82578 21.9281 6.07192C22.1742 6.31806 22.3125 6.6519 22.3125 7V19.6875H35C35.3481 19.6875 35.6819 19.8258 35.9281 20.0719C36.1742 20.3181 36.3125 20.6519 36.3125 21C36.3125 21.3481 36.1742 21.6819 35.9281 21.9281C35.6819 22.1742 35.3481 22.3125 35 22.3125H22.3125V35C22.3125 35.3481 22.1742 35.6819 21.9281 35.9281C21.6819 36.1742 21.3481 36.3125 21 36.3125C20.6519 36.3125 20.3181 36.1742 20.0719 35.9281C19.8258 35.6819 19.6875 35.3481 19.6875 35V22.3125H7C6.6519 22.3125 6.31806 22.1742 6.07192 21.9281C5.82578 21.6819 5.6875 21.3481 5.6875 21C5.6875 20.6519 5.82578 20.3181 6.07192 20.0719C6.31806 19.8258 6.6519 19.6875 7 19.6875H19.6875V7C19.6875 6.6519 19.8258 6.31806 20.0719 6.07192C20.3181 5.82578 20.6519 5.6875 21 5.6875Z" fill="#141414"/>
</svg>
