<svg width="1440" height="1038" viewBox="0 0 1440 1038" fill="none" xmlns="http://www.w3.org/2000/svg">
<path d="M-65.6523 388C-134.768 488.624 473.881 786.468 242.736 613.762C11.5912 441.057 -116.7 492.758 82.9929 671.302C282.686 849.846 185.336 695.427 43.9333 615.289C-97.4693 535.151 -70.0686 656.334 33.4519 753.574C136.972 850.815 39.1469 709.136 -70.6844 643.279C-180.516 577.422 -43.487 764.757 -145.411 767.926C-226.951 770.461 -223.702 833.5 -211.885 864.702" stroke="#2E312E" stroke-opacity="0.66" stroke-linecap="round"/>
<path d="M1019.45 191.412C1113.85 252.323 1033.3 100.741 1165.99 80.1492C1298.68 59.5578 1594.09 -90.5473 1446.33 -85.8088C1298.58 -81.0703 1049.72 234.353 1235.16 186.66C1420.6 138.967 1520.9 29.016 1293.02 115.102C1065.15 201.188 1265.79 338.473 1391.13 306.56C1516.46 274.646 1358.21 575.351 1487.49 538.493C1616.77 501.634 1512.75 433.257 1454.9 572.771C1397.06 712.285 1560.36 613.983 1579.26 679.809" stroke="#2E312E" stroke-opacity="0.66" stroke-linecap="round"/>
<path d="M1517.81 433.515C1340.65 206.76 1069.09 378.663 1159.73 538.784C1250.38 698.904 1398.24 608.848 1364.87 526.164C1325.14 427.74 1099.61 559.359 1220.61 750.832" stroke="#FFD03A" stroke-width="50"/>
<path d="M702.343 513.262C708.534 511.184 715.505 524.918 718.216 532.045C719.209 524.918 722.582 510.944 728.137 512.063C733.693 513.182 732.437 528.515 731.114 536.042C736.074 532.179 746.868 525.012 750.36 527.25C754.726 530.047 756.908 537.041 738.058 551.028C743.614 551.628 758.297 560.819 754.329 567.613C751.154 573.048 743.217 569.878 739.646 567.613C742.754 570.277 747.821 577.285 743.217 583.998C738.614 590.712 729.923 578.936 726.153 572.209C725.756 576.605 723.613 585.357 718.216 585.197C712.819 585.038 712.661 575.14 713.256 570.211C709.618 574.607 700.676 582.12 694.009 577.005C687.342 571.889 694.406 564.083 698.771 560.819C694.406 561.019 685.557 559.98 685.08 554.225C684.485 547.032 686.866 538.639 703.93 542.036C699.168 536.242 694.604 515.86 702.343 513.262Z" fill="#BBDBE7"/>
<path d="M1373.15 51.682C1370.41 24.1788 1367.78 33.2519 1357.63 53.0305C1351.2 50.0954 1338.03 44.896 1336.78 47.5793C1335.54 50.2626 1344.24 59.3463 1348.75 63.5527C1342.48 66.3501 1330.01 72.4847 1330.25 74.6449C1330.5 76.805 1344.85 75.7022 1351.99 74.8808C1349.46 80.7525 1344.85 93.074 1346.72 95.3865C1348.58 97.699 1358.79 90.4049 1363.67 86.4688C1364.35 90.4653 1366.67 98.401 1370.45 98.1723C1374.23 97.9436 1374.5 87.2044 1374.17 81.8634C1379.36 84.8974 1390.19 90.4647 1391.96 88.4614C1393.74 86.458 1386.41 76.996 1382.53 72.5154C1388.38 71.9046 1400.05 69.9413 1399.95 66.9737C1399.85 64.0061 1387.35 62.7919 1381.12 62.5557C1382.66 60.4936 1387.21 54.2617 1393.1 45.8307C1400.46 35.292 1389.1 41.9107 1373.15 51.682Z" fill="#FE713B"/>
<circle cx="636.5" cy="551.5" r="2.5" fill="#2E312E"/>
<circle cx="636.5" cy="581.5" r="2.5" fill="#2E312E"/>
<circle cx="636.5" cy="566.5" r="2.5" fill="#2E312E"/>
<circle cx="636.5" cy="596.5" r="2.5" fill="#2E312E"/>
<circle cx="681.5" cy="551.5" r="2.5" fill="#2E312E"/>
<circle cx="681.5" cy="581.5" r="2.5" fill="#2E312E"/>
<circle cx="681.5" cy="566.5" r="2.5" fill="#2E312E"/>
<circle cx="681.5" cy="596.5" r="2.5" fill="#2E312E"/>
<circle cx="651.5" cy="551.5" r="2.5" fill="#2E312E"/>
<circle cx="651.5" cy="581.5" r="2.5" fill="#2E312E"/>
<circle cx="651.5" cy="566.5" r="2.5" fill="#2E312E"/>
<circle cx="651.5" cy="596.5" r="2.5" fill="#2E312E"/>
<circle cx="696.5" cy="551.5" r="2.5" fill="#2E312E"/>
<circle cx="696.5" cy="581.5" r="2.5" fill="#2E312E"/>
<circle cx="696.5" cy="566.5" r="2.5" fill="#2E312E"/>
<circle cx="696.5" cy="596.5" r="2.5" fill="#2E312E"/>
<circle cx="666.5" cy="551.5" r="2.5" fill="#2E312E"/>
<circle cx="666.5" cy="581.5" r="2.5" fill="#2E312E"/>
<circle cx="666.5" cy="566.5" r="2.5" fill="#2E312E"/>
<circle cx="666.5" cy="596.5" r="2.5" fill="#2E312E"/>
<circle cx="711.5" cy="551.5" r="2.5" fill="#2E312E"/>
<circle cx="711.5" cy="581.5" r="2.5" fill="#2E312E"/>
<circle cx="711.5" cy="566.5" r="2.5" fill="#2E312E"/>
<circle cx="711.5" cy="596.5" r="2.5" fill="#2E312E"/>
<circle cx="32.5" cy="43.5" r="2.5" fill="#2E312E"/>
<circle cx="32.5" cy="73.5" r="2.5" fill="#2E312E"/>
<circle cx="32.5" cy="58.5" r="2.5" fill="#2E312E"/>
<circle cx="32.5" cy="88.5" r="2.5" fill="#2E312E"/>
<circle cx="2.5" cy="43.5" r="2.5" fill="#2E312E"/>
<circle cx="2.5" cy="73.5" r="2.5" fill="#2E312E"/>
<circle cx="2.5" cy="58.5" r="2.5" fill="#2E312E"/>
<circle cx="2.5" cy="88.5" r="2.5" fill="#2E312E"/>
<circle cx="47.5" cy="43.5" r="2.5" fill="#2E312E"/>
<circle cx="47.5" cy="73.5" r="2.5" fill="#2E312E"/>
<circle cx="47.5" cy="58.5" r="2.5" fill="#2E312E"/>
<circle cx="47.5" cy="88.5" r="2.5" fill="#2E312E"/>
<circle cx="17.5" cy="43.5" r="2.5" fill="#2E312E"/>
<circle cx="17.5" cy="73.5" r="2.5" fill="#2E312E"/>
<circle cx="17.5" cy="58.5" r="2.5" fill="#2E312E"/>
<circle cx="17.5" cy="88.5" r="2.5" fill="#2E312E"/>
<circle cx="62.5" cy="43.5" r="2.5" fill="#2E312E"/>
<circle cx="62.5" cy="73.5" r="2.5" fill="#2E312E"/>
<circle cx="62.5" cy="58.5" r="2.5" fill="#2E312E"/>
<circle cx="62.5" cy="88.5" r="2.5" fill="#2E312E"/>
<circle cx="1332.5" cy="269.5" r="2.5" fill="#2E312E"/>
<circle cx="1332.5" cy="299.5" r="2.5" fill="#2E312E"/>
<circle cx="1332.5" cy="284.5" r="2.5" fill="#2E312E"/>
<circle cx="1332.5" cy="314.5" r="2.5" fill="#2E312E"/>
<circle cx="1377.5" cy="269.5" r="2.5" fill="#2E312E"/>
<circle cx="1377.5" cy="299.5" r="2.5" fill="#2E312E"/>
<circle cx="1377.5" cy="284.5" r="2.5" fill="#2E312E"/>
<circle cx="1377.5" cy="314.5" r="2.5" fill="#2E312E"/>
<circle cx="1347.5" cy="269.5" r="2.5" fill="#2E312E"/>
<circle cx="1347.5" cy="299.5" r="2.5" fill="#2E312E"/>
<circle cx="1347.5" cy="284.5" r="2.5" fill="#2E312E"/>
<circle cx="1347.5" cy="314.5" r="2.5" fill="#2E312E"/>
<circle cx="1392.5" cy="269.5" r="2.5" fill="#2E312E"/>
<circle cx="1392.5" cy="299.5" r="2.5" fill="#2E312E"/>
<circle cx="1392.5" cy="284.5" r="2.5" fill="#2E312E"/>
<circle cx="1392.5" cy="314.5" r="2.5" fill="#2E312E"/>
<circle cx="1362.5" cy="269.5" r="2.5" fill="#2E312E"/>
<circle cx="1362.5" cy="299.5" r="2.5" fill="#2E312E"/>
<circle cx="1362.5" cy="284.5" r="2.5" fill="#2E312E"/>
<circle cx="1362.5" cy="314.5" r="2.5" fill="#2E312E"/>
<circle cx="1407.5" cy="269.5" r="2.5" fill="#2E312E"/>
<circle cx="1407.5" cy="299.5" r="2.5" fill="#2E312E"/>
<circle cx="1407.5" cy="284.5" r="2.5" fill="#2E312E"/>
<circle cx="1407.5" cy="314.5" r="2.5" fill="#2E312E"/>
</svg>
