<svg width="76" height="76" viewBox="0 0 76 76" fill="none" xmlns="http://www.w3.org/2000/svg">
<circle cx="38" cy="38" r="38" fill="#ADDF00"/>
<g clip-path="url(#clip0_1_3719)">
<g clip-path="url(#clip1_1_3719)">
<path d="M49.207 45.4961C46.8539 45.4961 44.9395 43.5817 44.9395 41.2285C44.9395 38.8753 46.8539 36.9609 49.207 36.9609C51.5602 36.9609 53.4746 38.8753 53.4746 41.2285C53.4746 43.5817 51.5602 45.4961 49.207 45.4961ZM26.793 45.4961C24.4398 45.4961 22.5254 43.5817 22.5254 41.2285C22.5254 38.8753 24.4398 36.9609 26.793 36.9609C29.1461 36.9609 31.0605 38.8753 31.0605 41.2285C31.0605 43.5817 29.1461 45.4961 26.793 45.4961ZM45.4219 21.9688C44.0151 21.9688 42.7503 21.1871 42.1212 19.9289L41.9645 19.6155C41.8721 19.4306 41.73 19.275 41.5541 19.1663C41.3782 19.0576 41.1755 19 40.9688 19H35.0312C34.8245 19 34.6218 19.0576 34.4459 19.1663C34.2701 19.275 34.1279 19.4305 34.0355 19.6154L33.8788 19.9288C33.2497 21.1871 31.9849 21.9688 30.5781 21.9688C29.9633 21.9688 29.4648 22.4672 29.4648 23.082V29.4349C29.4648 31.9327 30.253 34.3122 31.744 36.3162C33.2349 38.3201 35.2877 39.7588 37.6801 40.4765C37.8888 40.5391 38.1112 40.5391 38.3199 40.4765C40.7123 39.7588 42.7651 38.3201 44.256 36.3162C45.747 34.3122 46.5352 31.9327 46.5352 29.4349V23.082C46.5352 22.4672 46.0367 21.9688 45.4219 21.9688ZM41.936 28.4497L37.7376 32.6481C37.5203 32.8655 37.2353 32.9742 36.9505 32.9742C36.6656 32.9742 36.3806 32.8655 36.1633 32.6481L34.0641 30.5489C33.6293 30.1141 33.6293 29.4093 34.0641 28.9745C34.4988 28.5397 35.2037 28.5397 35.6385 28.9745L36.9505 30.2864L40.3618 26.8753C40.7965 26.4405 41.5014 26.4405 41.9362 26.8753C42.3708 27.3101 42.3708 28.0149 41.936 28.4497ZM53.7596 45.8549C52.5867 47.0092 50.9788 47.7227 49.207 47.7227C47.4325 47.7227 45.8221 47.007 44.6488 45.8493C44.0255 46.298 43.4719 46.8363 43.0059 47.4468L43.6176 47.9826C45.4718 49.6066 46.5352 51.9464 46.5352 54.4023V57H55.8867C56.5015 57 57 56.5015 57 55.8867V52.1758C57 49.5769 55.721 47.2715 53.7596 45.8549ZM22.2404 45.8549C20.279 47.2715 19 49.5769 19 52.1758V55.8867C19 56.5015 19.4985 57 20.1133 57H29.4648V54.4023C29.4648 51.9464 30.5282 49.6066 32.3824 47.9826L32.9941 47.4468C32.5281 46.8363 31.9745 46.298 31.3512 45.8493C30.1779 47.007 28.5675 47.7227 26.793 47.7227C25.0212 47.7227 23.4133 47.0092 22.2404 45.8549ZM42.1506 49.6575C41.1029 50.7508 39.6301 51.4336 38 51.4336C36.3699 51.4336 34.8971 50.7508 33.8494 49.6575C32.5281 50.8148 31.6914 52.5121 31.6914 54.4023V57H44.3086V54.4023C44.3086 52.5121 43.4719 50.8148 42.1506 49.6575ZM38 49.207C36.0561 49.207 34.4746 47.6256 34.4746 45.6816C34.4746 43.7377 36.0561 42.1562 38 42.1562C39.9439 42.1562 41.5254 43.7377 41.5254 45.6816C41.5254 47.6256 39.9439 49.207 38 49.207Z" fill="white"/>
</g>
</g>
<defs>
<clipPath id="clip0_1_3719">
<rect width="38" height="38" fill="white" transform="translate(19 19)"/>
</clipPath>
<clipPath id="clip1_1_3719">
<rect width="38" height="38" fill="white" transform="translate(19 19)"/>
</clipPath>
</defs>
</svg>
