<svg width="15" height="9" viewBox="0 0 15 9" fill="none" xmlns="http://www.w3.org/2000/svg">
<path d="M14.6345 0.329266C14.4235 0.118361 14.1374 -0.000119209 13.8391 -0.000119209C13.5408 -0.000119209 13.2547 0.118361 13.0437 0.329266L7.47498 5.89802L1.90623 0.329266C1.69405 0.124338 1.40988 0.0109444 1.11491 0.0135078C0.819934 0.0160713 0.537769 0.134386 0.329185 0.34297C0.120602 0.551554 0.00228786 0.833718 -0.000275612 1.12869C-0.00283909 1.42366 0.110555 1.70784 0.315483 1.92002L6.67961 8.28414C6.89058 8.49505 7.17667 8.61353 7.47498 8.61353C7.77329 8.61353 8.05939 8.49505 8.27036 8.28414L14.6345 1.92002C14.8454 1.70905 14.9639 1.42295 14.9639 1.12464C14.9639 0.826331 14.8454 0.540235 14.6345 0.329266Z" fill="black" fill-opacity="0.49"/>
</svg>
