<svg width="59" height="63" viewBox="0 0 59 63" fill="none" xmlns="http://www.w3.org/2000/svg">
<path d="M30.6798 2.37706L26.2487 7.09589C24.9215 8.50929 22.6006 8.21222 21.6722 6.5101C20.3391 4.06618 16.6525 4.78947 16.3416 7.5559L15.8991 11.4944C15.7433 12.8807 14.571 13.9287 13.1759 13.9287H11.9716C10.2097 13.9287 9.20391 15.9402 10.2611 17.3498C11.2179 18.6256 10.4918 20.4621 8.92117 20.7385L3.77987 21.6434C-0.490566 22.395 -1.41101 28.1153 2.4081 30.1685L4.60616 31.3503C5.80054 31.9924 6.18287 33.5233 5.43067 34.6516L2.87045 38.4919C2.25949 39.4084 3.25933 40.541 4.24447 40.0484C4.95863 39.6913 5.79889 40.2106 5.79889 41.0091V55.2613C5.79889 61.5504 12.9127 65.2039 18.0243 61.5401L32.3461 51.2747C34.2817 49.8874 36.906 49.9656 38.7556 51.4658L40.0979 52.5545C43.6217 55.4127 48.7531 52.1294 47.6345 47.7322L47.4364 46.9533C46.779 44.3689 48.7318 41.8572 51.3984 41.8572C54.9712 41.8572 56.8251 37.5966 54.3899 34.9823L52.594 33.0544C50.7952 31.1233 51.2688 28.0194 53.5617 26.7127L56.7084 24.9195C59.2534 23.4691 58.3913 19.6011 55.4712 19.3688L54.8207 19.3171C52.7307 19.1508 51.6689 16.7228 52.9658 15.0754C54.3218 13.353 53.0948 10.8255 50.9027 10.8255H49.6556C48.6365 10.8255 47.6772 10.3447 47.0672 9.52833L42.2085 3.02509C39.4034 -0.729354 33.8879 -1.03939 30.6798 2.37706Z" fill="#ADDF00"/>
<path d="M27.0049 32.2031C27.4646 33.4099 28.6254 35.0994 29.5909 32.2031" stroke="#2E312E" stroke-width="4" stroke-linecap="round" stroke-linejoin="round"/>
<mask id="mask0_1_3600" style="mask-type:alpha" maskUnits="userSpaceOnUse" x="17" y="26" width="8" height="10">
<ellipse cx="20.971" cy="31.1698" rx="3.96515" ry="4.48235" fill="white"/>
</mask>
<g mask="url(#mask0_1_3600)">
<ellipse cx="20.971" cy="31.1698" rx="3.96515" ry="4.48235" fill="white"/>
<ellipse cx="23.0403" cy="26.6874" rx="3.96515" ry="4.48235" fill="#2E312E"/>
</g>
<mask id="mask1_1_3600" style="mask-type:alpha" maskUnits="userSpaceOnUse" x="30" y="24" width="9" height="10">
<ellipse cx="34.763" cy="29.0995" rx="3.96515" ry="4.48235" fill="white"/>
</mask>
<g mask="url(#mask1_1_3600)">
<ellipse cx="34.763" cy="29.0995" rx="3.96515" ry="4.48235" fill="white"/>
<ellipse cx="36.8322" cy="24.6171" rx="3.96515" ry="4.48235" fill="#2E312E"/>
</g>
</svg>
