<svg width="35" height="36" viewBox="0 0 35 36" fill="none" xmlns="http://www.w3.org/2000/svg">
<path d="M8.50167 0.614077C11.5086 -0.396902 14.8946 6.28463 16.2117 9.75177C16.6936 6.28464 18.332 -0.513537 21.0305 0.0308367C23.729 0.57521 23.1186 8.03442 22.4761 11.696C24.8855 9.8166 30.1283 6.33001 31.8245 7.41876C33.9447 8.77969 35.0049 12.182 25.8492 18.9867C28.5477 19.2783 35.6795 23.75 33.752 27.0551C32.21 29.6992 28.355 28.1568 26.6202 27.0551C28.1301 28.3512 30.5909 31.76 28.355 35.0263C26.1191 38.2925 21.8978 32.5636 20.0667 29.2909C19.874 31.4295 18.8331 35.6873 16.2117 35.6095C13.5903 35.5318 13.5132 30.7166 13.8023 28.3188C12.0354 30.4574 7.69212 34.1125 4.45393 31.6239C1.21573 29.1354 4.64668 25.3377 6.76693 23.75C4.64667 23.8472 0.348329 23.3417 0.117028 20.542C-0.172098 17.0425 0.984404 12.9597 9.27267 14.6123C6.95967 11.7932 4.74304 1.8778 8.50167 0.614077Z" fill="#ADDF00"/>
</svg>
