<svg width="37" height="34" viewBox="0 0 37 34" fill="none" xmlns="http://www.w3.org/2000/svg">
<path d="M35.464 8.42355C36.475 11.4305 29.7935 14.8164 26.3264 16.1336C29.7935 16.6154 36.5917 18.2538 36.0473 20.9523C35.5029 23.6508 28.0437 23.0405 24.3821 22.398C26.2615 24.8073 29.7481 30.0502 28.6594 31.7464C27.2984 33.8666 23.8961 34.9267 17.0914 25.7711C16.7998 28.4696 12.3282 35.6014 9.02303 33.6739C6.37893 32.1319 7.92132 28.2769 9.02303 26.5421C7.72691 28.052 4.31809 30.5128 1.05185 28.2769C-2.21439 26.041 3.51449 21.8197 6.78721 19.9886C4.6486 19.7958 0.390827 18.755 0.468593 16.1336C0.54636 13.5121 5.36147 13.4351 7.75931 13.7242C5.6207 11.9573 1.96562 7.614 4.45418 4.3758C6.94275 1.13761 10.7404 4.56856 12.3282 6.68881C12.231 4.56855 12.7364 0.270204 15.5361 0.0389031C19.0356 -0.250223 23.1184 0.906279 21.4659 9.19455C24.2849 6.88154 34.2003 4.66491 35.464 8.42355Z" fill="#FE713B"/>
</svg>
