<svg width="36" height="37" viewBox="0 0 36 37" fill="none" xmlns="http://www.w3.org/2000/svg">
<path d="M31.8647 32.3605C29.2219 34.1152 24.222 28.5377 22.0524 25.5296C22.4843 29.0033 22.6612 35.9939 19.9138 36.1665C17.1663 36.3391 15.8253 28.9761 15.4982 25.273C13.6574 27.7119 9.4956 32.4367 7.5754 31.824C5.17516 31.0582 3.27057 28.0462 10.3531 19.1037C7.67103 19.5205 -0.375076 17.047 0.631322 13.3557C1.43644 10.4026 5.55929 10.8946 7.52008 11.5098C5.72619 10.6487 2.46699 7.99289 3.78134 4.25924C5.0957 0.525603 10.6558 4.96674 13.2716 7.65402C12.9043 5.53839 12.8077 1.1563 15.3599 0.552945C17.9121 -0.0504113 19.2328 4.58068 19.5741 6.97165C20.7273 4.4486 23.9766 -0.206062 27.7486 1.3596C31.5205 2.92526 29.1894 7.48151 27.5523 9.56392C29.5752 8.92126 33.8579 8.29704 34.8059 10.9414C35.9909 14.2469 35.9305 18.4899 27.497 19.0388C30.4608 21.1632 35.1682 30.167 31.8647 32.3605Z" fill="#FFD03A"/>
</svg>
