<svg width="66" height="60" viewBox="0 0 66 60" fill="none" xmlns="http://www.w3.org/2000/svg">
<path d="M40.0856 16.4274C37.5442 -9.12436 35.1039 -0.694991 25.6657 17.6802C19.6927 14.9533 7.45804 10.1229 6.30354 12.6158C5.14904 15.1087 13.2314 23.5478 17.4169 27.4558C11.5949 30.0547 0.0080402 35.754 0.236805 37.7609C0.46557 39.7677 13.7973 38.7432 20.4345 37.9801C18.0787 43.4351 13.7996 54.8824 15.5301 57.0308C17.2606 59.1792 26.7504 52.4027 31.279 48.7459C31.9172 52.4587 34.0712 59.8314 37.5812 59.619C41.0911 59.4065 41.3455 49.4293 41.034 44.4672C45.8577 47.286 55.9172 52.4582 57.566 50.597C59.2147 48.7358 52.4097 39.9452 48.8011 35.7825C54.2357 35.2151 65.0811 33.3911 64.9857 30.6341C64.8904 27.877 53.2837 26.7489 47.4922 26.5295C48.9223 24.6137 53.1505 18.824 58.6221 10.9913C65.4618 1.20035 54.9035 7.34937 40.0856 16.4274Z" fill="#EB7E2C"/>
<path d="M30.999 31.2051C31.4047 32.3056 32.4422 33.8514 33.3476 31.2306" stroke="#2E312E" stroke-width="4" stroke-linecap="round" stroke-linejoin="round"/>
<mask id="mask0_1_3586" style="mask-type:alpha" maskUnits="userSpaceOnUse" x="21" y="26" width="9" height="9">
<ellipse cx="25.5295" cy="30.2056" rx="3.60135" ry="4.07109" transform="rotate(0.621767 25.5295 30.2056)" fill="white"/>
</mask>
<g mask="url(#mask0_1_3586)">
<ellipse cx="25.5295" cy="30.2056" rx="3.60135" ry="4.07109" transform="rotate(0.621767 25.5295 30.2056)" fill="white"/>
<ellipse cx="27.4524" cy="26.1549" rx="3.60135" ry="4.07109" transform="rotate(0.621767 27.4524 26.1549)" fill="#2E312E"/>
</g>
<mask id="mask1_1_3586" style="mask-type:alpha" maskUnits="userSpaceOnUse" x="34" y="24" width="8" height="9">
<ellipse cx="38.0756" cy="28.4635" rx="3.60135" ry="4.07109" transform="rotate(0.621767 38.0756 28.4635)" fill="white"/>
</mask>
<g mask="url(#mask1_1_3586)">
<ellipse cx="38.0756" cy="28.4635" rx="3.60135" ry="4.07109" transform="rotate(0.621767 38.0756 28.4635)" fill="white"/>
<ellipse cx="39.9984" cy="24.4127" rx="3.60135" ry="4.07109" transform="rotate(0.621767 39.9984 24.4127)" fill="#2E312E"/>
</g>
</svg>
