<svg width="68" height="63" viewBox="0 0 68 63" fill="none" xmlns="http://www.w3.org/2000/svg">
<path d="M41.139 17.4447C38.531 -8.77805 36.0266 -0.127306 26.3405 18.7305C20.2106 15.932 7.65462 10.9747 6.4698 13.533C5.28498 16.0914 13.5796 24.7522 17.8751 28.7628C11.9001 31.4299 0.00895326 37.279 0.243726 39.3385C0.478499 41.3981 14.1603 40.3466 20.9719 39.5635C18.5542 45.1618 14.1627 56.9097 15.9387 59.1146C17.7146 61.3194 27.4536 54.3649 32.1012 50.612C32.7562 54.4224 34.9668 61.9887 38.5689 61.7707C42.171 61.5526 42.4321 51.3134 42.1124 46.221C47.0628 49.1138 57.3865 54.4219 59.0786 52.5118C60.7706 50.6017 53.7869 41.5802 50.0835 37.3082C55.6608 36.7259 66.791 34.854 66.6932 32.0246C66.5953 29.1951 54.6838 28.0374 48.7402 27.8122C50.2079 25.8461 54.5471 19.9043 60.1625 11.8659C67.1817 1.81781 56.3462 8.12833 41.139 17.4447Z" fill="#FE713B"/>
<path d="M31.8135 32.6094C32.2298 33.7388 33.2946 35.3252 34.2237 32.6355" stroke="#2E312E" stroke-width="4" stroke-linecap="round" stroke-linejoin="round"/>
<mask id="mask0_1_3622" style="mask-type:alpha" maskUnits="userSpaceOnUse" x="22" y="27" width="8" height="9">
<ellipse cx="26.2002" cy="31.5851" rx="3.69594" ry="4.17802" transform="rotate(0.621767 26.2002 31.5851)" fill="white"/>
</mask>
<g mask="url(#mask0_1_3622)">
<ellipse cx="26.2002" cy="31.5851" rx="3.69594" ry="4.17802" transform="rotate(0.621767 26.2002 31.5851)" fill="white"/>
<ellipse cx="28.1738" cy="27.4288" rx="3.69594" ry="4.17802" transform="rotate(0.621767 28.1738 27.4288)" fill="#2E312E"/>
</g>
<mask id="mask1_1_3622" style="mask-type:alpha" maskUnits="userSpaceOnUse" x="35" y="25" width="8" height="9">
<ellipse cx="39.0762" cy="29.796" rx="3.69594" ry="4.17802" transform="rotate(0.621767 39.0762 29.796)" fill="white"/>
</mask>
<g mask="url(#mask1_1_3622)">
<ellipse cx="39.0762" cy="29.796" rx="3.69594" ry="4.17802" transform="rotate(0.621767 39.0762 29.796)" fill="white"/>
<ellipse cx="41.0498" cy="25.6378" rx="3.69594" ry="4.17802" transform="rotate(0.621767 41.0498 25.6378)" fill="#2E312E"/>
</g>
</svg>
