<svg width="59" height="62" viewBox="0 0 59 62" fill="none" xmlns="http://www.w3.org/2000/svg">
<path d="M14.9084 1.38436C20.0287 -0.322404 25.7945 10.9575 28.0374 16.8109C28.8579 10.9576 31.6478 -0.51931 36.243 0.399716C40.8381 1.31874 39.7987 13.9116 38.7047 20.0931C42.8074 16.9203 51.7351 11.0342 54.6235 12.8722C58.234 15.1698 60.0392 20.9137 44.4486 32.4015C49.0437 32.8938 61.188 40.443 57.9057 46.0228C55.2799 50.4866 48.7155 47.8827 45.7615 46.0228C48.3325 48.2109 52.5229 53.9658 48.7155 59.48C44.9081 64.9941 37.72 55.3225 34.6019 49.7974C34.2736 53.4078 32.5012 60.5959 28.0374 60.4646C23.5735 60.3333 23.4422 52.2043 23.9346 48.1562C20.9259 51.7667 13.5299 57.9373 8.01575 53.736C2.50162 49.5348 8.34399 43.1235 11.9544 40.443C8.34397 40.6071 1.02457 39.7537 0.630699 35.0273C0.138364 29.1193 2.1077 22.2266 16.2213 25.0165C12.2826 20.2572 8.50806 3.51781 14.9084 1.38436Z" fill="#FFD03A"/>
<path d="M29.1855 33.3848C29.6231 34.5335 30.7281 36.1418 31.6472 33.3848" stroke="#2E312E" stroke-width="4" stroke-linecap="round" stroke-linejoin="round"/>
<mask id="mask0_1_3634" style="mask-type:alpha" maskUnits="userSpaceOnUse" x="19" y="28" width="9" height="9">
<ellipse cx="23.4416" cy="32.3997" rx="3.77457" ry="4.26691" fill="white"/>
</mask>
<g mask="url(#mask0_1_3634)">
<ellipse cx="23.4416" cy="32.3997" rx="3.77457" ry="4.26691" fill="white"/>
<ellipse cx="25.4113" cy="28.1321" rx="3.77457" ry="4.26691" fill="#2E312E"/>
</g>
<mask id="mask1_1_3634" style="mask-type:alpha" maskUnits="userSpaceOnUse" x="32" y="26" width="9" height="9">
<ellipse cx="36.5705" cy="30.431" rx="3.77457" ry="4.26691" fill="white"/>
</mask>
<g mask="url(#mask1_1_3634)">
<ellipse cx="36.5705" cy="30.431" rx="3.77457" ry="4.26691" fill="white"/>
<ellipse cx="38.5402" cy="26.1634" rx="3.77457" ry="4.26691" fill="#2E312E"/>
</g>
</svg>
