<svg width="76" height="76" viewBox="0 0 76 76" fill="none" xmlns="http://www.w3.org/2000/svg">
<circle cx="38" cy="38" r="38" fill="#BBDBE7"/>
<path d="M24.2203 42.0655L33.195 33.0907L35.3388 35.2369C36.3495 36.2527 37.6948 36.8124 39.1266 36.8124C40.5583 36.8124 41.9036 36.2527 42.9148 35.2365C44.9943 33.1465 44.9943 29.7461 42.9148 27.6561L39.5535 24.2859L41.2233 22.8176C45.4234 19.1369 51.812 19.5581 55.4926 23.7582C59.1732 27.9582 58.7521 34.3469 54.552 38.0275L52.153 40.2447L49.4898 37.5815C47.9403 36.032 45.419 36.032 43.8696 37.5815C43.1306 38.3204 42.7194 39.2992 42.7068 40.3422C41.7062 40.355 40.7096 40.7414 39.9479 41.5031C39.1858 42.2652 38.7994 43.2625 38.787 44.2636C37.7859 44.2759 36.7886 44.6624 36.0264 45.4246C34.477 46.9741 34.4769 49.4953 36.0263 51.0448L38.1594 53.1778L36.3555 54.845C35.1248 55.9235 33.2528 55.8001 32.1743 54.5694C31.0959 53.3388 31.2193 51.4668 32.45 50.3884C31.2193 51.4669 29.3473 51.3435 28.2689 50.1127C27.1904 48.8821 27.3138 47.0101 28.5446 45.9317L28.5444 45.9315C27.3138 47.01 25.4418 46.8866 24.3633 45.6559C23.4391 44.6013 23.4926 43.2698 24.2203 42.0655Z" fill="white"/>
<path d="M19.9617 22.3816C23.9106 18.4327 30.313 18.4327 34.262 22.3816L41.2123 29.3503C42.0423 30.1846 42.2973 31.4687 41.8595 32.5592C41.3832 33.7456 40.1565 34.5052 38.8817 34.3993C38.1788 34.3409 37.5165 34.0251 37.0228 33.5226L33.1965 29.692L23.0841 39.8043L19.9617 36.6819C16.0128 32.733 16.0128 26.3305 19.9617 22.3816ZM48.9949 44.9288L45.5686 41.5025C45.4222 41.3569 45.3062 41.1837 45.2271 40.9929C45.1481 40.8021 45.1077 40.5976 45.1083 40.3911C45.1077 40.1846 45.1481 39.98 45.2271 39.7893C45.3062 39.5985 45.4222 39.4253 45.5686 39.2797C45.875 38.9733 46.2777 38.8201 46.68 38.8201C47.0826 38.8201 47.485 38.9733 47.7915 39.2798L51.2177 42.706C51.8281 43.3164 51.83 44.308 51.2242 44.9215C51.2142 44.9314 51.2039 44.9407 51.1938 44.9504C50.8998 45.2329 50.5153 45.3892 50.1063 45.3892C49.8998 45.3897 49.6953 45.3493 49.5045 45.2703C49.3137 45.1913 49.1405 45.0752 48.9949 44.9288ZM45.0733 48.8505L41.647 45.4242C41.5006 45.2785 41.3845 45.1053 41.3055 44.9146C41.2265 44.7238 41.1861 44.5192 41.1867 44.3127C41.1861 44.1063 41.2265 43.9017 41.3055 43.711C41.3846 43.5202 41.5006 43.347 41.647 43.2013C41.9439 42.9045 42.3385 42.741 42.7584 42.741C43.1782 42.741 43.5729 42.9045 43.8698 43.2013L47.2961 46.6276C47.4425 46.7733 47.5586 46.9465 47.6376 47.1372C47.7166 47.328 47.757 47.5326 47.7565 47.739C47.757 47.9443 47.717 48.1477 47.6388 48.3376C47.5606 48.5274 47.4458 48.6999 47.3008 48.8453C47.2943 48.8517 47.2876 48.8577 47.2811 48.8641C46.6671 49.4624 45.6813 49.4584 45.0733 48.8505ZM41.1518 52.772L37.7255 49.3457C37.1127 48.7329 37.1126 47.7357 37.7255 47.1229C38.0224 46.8261 38.417 46.6625 38.8369 46.6625C39.2567 46.6625 39.6514 46.826 39.9483 47.1229L43.3746 50.5492C43.521 50.6948 43.6371 50.868 43.7161 51.0587C43.7951 51.2495 43.8355 51.4541 43.8349 51.6606C43.8355 51.8665 43.7953 52.0704 43.7167 52.2607C43.6381 52.451 43.5226 52.6239 43.3769 52.7694C43.3737 52.7726 43.3704 52.7755 43.3672 52.7786C42.7537 53.3843 41.7623 53.3824 41.1518 52.772Z" fill="white"/>
</svg>
