<svg width="58" height="58" viewBox="0 0 58 58" fill="none" xmlns="http://www.w3.org/2000/svg">
<path d="M29 1.16016C13.6242 1.16016 1.15997 13.6244 1.15997 29.0002C1.15997 44.376 13.6242 56.8402 29 56.8402C44.3758 56.8402 56.84 44.376 56.84 29.0002C56.84 13.6244 44.3758 1.16016 29 1.16016ZM39.7068 32.5701C39.7068 32.5701 42.1689 35.0003 42.775 36.1284C42.7924 36.1535 42.803 36.1728 42.8069 36.1864C43.0524 36.5982 43.1133 36.9239 42.9896 37.1637C42.7866 37.5639 42.0906 37.7611 41.8528 37.7785H37.5028C37.2012 37.7785 36.569 37.7002 35.8034 37.1724C35.2147 36.7606 34.6347 36.0849 34.0692 35.4266C33.2253 34.4464 32.4945 33.5996 31.7579 33.5996C31.6643 33.5991 31.5713 33.6138 31.4824 33.6431C30.9256 33.8229 30.2122 34.6175 30.2122 36.7345C30.2122 37.3957 29.6902 37.7756 29.3219 37.7756H27.3296C26.651 37.7756 23.1159 37.5378 19.9839 34.2347C16.1501 30.1892 12.6991 22.075 12.6701 21.9996C12.4526 21.4747 12.9021 21.1934 13.3922 21.1934H17.7857C18.3715 21.1934 18.5629 21.5501 18.6963 21.8662C18.8529 22.2345 19.4271 23.699 20.3696 25.3462C21.8979 28.0316 22.8346 29.122 23.5857 29.122C23.7265 29.1203 23.8648 29.0845 23.9888 29.0176C24.969 28.4724 24.7863 24.9779 24.7428 24.2529C24.7428 24.1166 24.7399 22.6898 24.2382 22.0054C23.8786 21.5095 23.2667 21.321 22.8955 21.2514C23.0457 21.044 23.2437 20.8759 23.4726 20.7613C24.1454 20.4249 25.3576 20.3756 26.5611 20.3756H27.231C28.536 20.393 28.8724 20.4771 29.3451 20.596C30.3021 20.8251 30.3224 21.4428 30.2383 23.5569C30.2122 24.1572 30.1861 24.8358 30.1861 25.6362L30.1774 26.193C30.1484 27.2689 30.1136 28.4898 30.8734 28.9915C30.9714 29.0561 31.0866 29.0894 31.204 29.0872C31.4679 29.0872 32.2625 29.0872 34.4143 25.3955C35.0754 24.2059 35.652 22.9714 36.1398 21.7009C36.1833 21.6255 36.3109 21.3935 36.4617 21.3036C36.5741 21.2501 36.6968 21.2214 36.8213 21.2195H41.9862C42.5488 21.2195 42.9345 21.3036 43.007 21.5211C43.1346 21.8662 42.9838 22.9189 40.6261 26.1118L39.5734 27.5009C37.4361 30.3023 37.4361 30.4444 39.7068 32.5701Z" fill="#2196EA"/>
</svg>
